:version 1.10
:name ASF
:units
  mass 1
  length 1
  angle deg
:documentation
  ASF file generated by Kaydara
:root
  axis xyz
  order  tx ty tz rx ry rz
  position 0 0 0
  orientation 0 0 0
:bonedata
  begin
    id 1
    name RightUpLegDummy
    direction -1 2.30186e-007 8.31532e-007
    length 4.46685
    axis 0 0 0 xyz
  end
  begin
    id 2
    name RightUpLeg
    direction -2.30187e-007 -1 1.24343e-010
    length 16.4045
    axis -3.49089 -0.000906625 0.000286804 xyz
    dof rx ry rz
  end
  begin
    id 3
    name RightLeg
    direction -2.30181e-007 -1 -4.17157e-009
    length 17.5097
    axis 3.68512 0.0193738 -0.131023 xyz
    dof rx ry rz
  end
  begin
    id 4
    name RightFoot
    direction 8.31421e-007 -4.51202e-011 1
    length 6.49508
    axis 4.81691e-005 -0.120479 -0.188788 xyz
    dof rx ry rz
  end
  begin
    id 5
    name RightToes
    direction 0.00124746 -0.014064 0.9999
    length 3.85082
    axis 0.000481921 0.542163 -0.142578 xyz
    dof rx ry rz
  end
  begin
    id 6
    name SpineDummy
    direction 0.0717043 0.9409 -0.331007
    length 10.0032
    axis 0 0 0 xyz
  end
  begin
    id 7
    name Spine
    direction 2.30186e-007 1 4.58806e-011
    length 9.84055
    axis -0.001389 0.000121418 2.40972e-006 xyz
    dof rx ry rz
  end
  begin
    id 8
    name Spine1
    direction 0 0 0
    length 0
    axis -0.001389 0.000121451 1.30017e-006 xyz
    dof rx ry rz
  end
  begin
    id 9
    name HEadDummy
    direction -0.00347485 0.950688 -0.310128
    length 8.00997
    axis -0.001389 0.000121451 1.30017e-006 xyz
  end
  begin
    id 10
    name HEad
    direction -0.0222688 0.980941 0.193023
    length 5.12695
    axis -0.001389 0.000121451 1.30017e-006 xyz
    dof rx ry rz
  end
  begin
    id 11
    name LeftShoulder1Dummy
    direction 0.988871 0.146793 -0.0242004
    length 3.5792
    axis -0.001389 0.000121451 1.30017e-006 xyz
  end
  begin
    id 12
    name LeftShoulder1
    direction 0.993832 0.108932 0.020779
    length 4.16823
    axis -0.001389 0.000121451 1.30017e-006 xyz
    dof rx ry rz
  end
  begin
    id 13
    name LeftArm
    direction 1 3.44807e-006 -8.31404e-007
    length 9.91437
    axis -23.1894 0.134784 0.967509 xyz
    dof rx ry rz
  end
  begin
    id 14
    name LeftForeArm
    direction 1 3.44842e-006 -8.31581e-007
    length 9.08575
    axis -9.91835 -0.06569 -0.177793 xyz
    dof rx ry rz
  end
  begin
    id 15
    name LeftHand
    direction 0.992938 -0.0411636 0.11126
    length 5.32135
    axis -0.00960232 -0.00340091 0.185173 xyz
    dof rx ry rz
  end
  begin
    id 16
    name RightShoulderDummy
    direction -0.988871 0.146793 -0.0241962
    length 3.5792
    axis -0.001389 0.000121451 1.30017e-006 xyz
  end
  begin
    id 17
    name RightShoulder
    direction -0.993832 0.108933 0.0207785
    length 4.16823
    axis 0.215806 0.000203643 -0.0068026 xyz
    dof rx ry rz
  end
  begin
    id 18
    name RightArm
    direction -1 3.90912e-006 8.31284e-007
    length 9.91437
    axis -23.2009 -0.134239 -0.964101 xyz
    dof rx ry rz
  end
  begin
    id 19
    name RightForeArm
    direction -1 3.90882e-006 8.31502e-007
    length 9.08575
    axis -9.92322 0.0658061 0.178867 xyz
    dof rx ry rz
  end
  begin
    id 20
    name RightHand
    direction -0.992843 -0.0414603 0.112003
    length 5.28593
    axis -0.00960638 0.00330671 -0.185228 xyz
    dof rx ry rz
  end
  begin
    id 21
    name LeftUpLegDummy
    direction 1 -2.30186e-007 -8.31532e-007
    length 4.46685
    axis 0 0 0 xyz
  end
  begin
    id 22
    name LeftUpLeg
    direction -2.30187e-007 -1 6.00931e-010
    length 16.4045
    axis -3.48766 0.00143442 -0.000524262 xyz
    dof rx ry rz
  end
  begin
    id 23
    name LeftLeg
    direction -2.30187e-007 -1 1.6669e-009
    length 17.5097
    axis 3.68178 -0.00654042 -0.000285133 xyz
    dof rx ry rz
  end
  begin
    id 24
    name LeftFoot
    direction 8.31532e-007 -4.54478e-011 1
    length 6.49508
    axis 1.87233e-006 4.66016e-005 -8.6538e-006 xyz
    dof rx ry rz
  end
  begin
    id 25
    name LeftToes
    direction 0.00818058 -0.00485161 0.999955
    length 3.85048
    axis 1.06247e-005 4.65869e-005 -8.65513e-006 xyz
    dof rx ry rz
  end
:hierarchy
  begin
    root RightUpLegDummy SpineDummy LeftUpLegDummy
    RightUpLegDummy RightUpLeg
    RightUpLeg RightLeg
    RightLeg RightFoot
    RightFoot RightToes
    SpineDummy Spine
    Spine Spine1
    Spine1 HEadDummy LeftShoulder1Dummy RightShoulderDummy
    HEadDummy HEad
    LeftShoulder1Dummy LeftShoulder1
    LeftShoulder1 LeftArm
    LeftArm LeftForeArm
    LeftForeArm LeftHand
    RightShoulderDummy RightShoulder
    RightShoulder RightArm
    RightArm RightForeArm
    RightForeArm RightHand
    LeftUpLegDummy LeftUpLeg
    LeftUpLeg LeftLeg
    LeftLeg LeftFoot
    LeftFoot LeftToes
  end

:SAMPLES-PER-SECOND 30
:FULLY-SPECIFIED
:DEGREES
130
root  26.6124 30.0797 -55.2734 163.697 -65.4799 -155.709
RightUpLeg  -21.8071 -13.9974 4.81748
RightLeg  45.81 5.80716 5.19561
RightFoot  -16.2286 -0.363284 -2.17015
RightToes  -48.0313 -0.285605 -0.355853
Spine  7.4944 2.75521 4.27024
Spine1  14.8943 6.18156 5.49164
HEad  18.6029 50.1668 -8.7816
LeftShoulder1  0 -2.42657e-020 -4.95415e-022
LeftArm  -28.9675 9.14092 -85.339
LeftForeArm  52.427 -15.7155 -2.80996
LeftHand  0.10042 -9.16509 -1.624
RightShoulder  0 2.42657e-020 1.07489e-018
RightArm  -31.2878 0.778299 67.8212
RightForeArm  42.5745 26.8944 5.11246
RightHand  -0.708908 22.3123 -3.22445
LeftUpLeg  -28.3648 -10.9535 4.27277
LeftLeg  88.9258 0.233767 2.7249
LeftFoot  -6.71923 -0.00940066 -0.160146
LeftToes  -6.10041 9.37529e-007 1.1992e-007
131
root  25.0368 30.6911 -56.0858 166.269 -66.6061 -158.571
RightUpLeg  -15.5083 -13.6246 3.04555
RightLeg  39.6606 5.62396 4.04844
RightFoot  -15.2123 -0.288118 -1.77986
RightToes  -48.9826 -0.293916 -0.360044
Spine  7.41161 3.84666 3.26549
Spine1  14.6442 8.53894 4.01298
HEad  21.9605 43.7261 -4.77028
LeftShoulder1  0 -2.42657e-020 -4.95415e-022
LeftArm  -23.3669 11.2518 -84.8881
LeftForeArm  48.629 -19.4929 -3.54932
LeftHand  0.168661 -9.27769 -2.45017
RightShoulder  0 2.42657e-020 1.07489e-018
RightArm  -31.4054 0.780723 71.3279
RightForeArm  40.9059 27.0481 5.14895
RightHand  -0.724036 21.8707 -3.37708
LeftUpLeg  -31.568 -8.99537 2.38335
LeftLeg  83.6659 0.778345 4.35938
LeftFoot  -9.86795 -0.0499539 -0.578659
LeftToes  -2.21035 9.37529e-007 1.1992e-007
132
root  23.2993 31.5695 -56.7539 170.977 -67.6644 -163.469
RightUpLeg  -8.65379 -11.3041 0.836455
RightLeg  31.5932 3.82825 2.01526
RightFoot  -11.0808 -0.111247 -0.769328
RightToes  -51.495 -0.316188 -0.370442
Spine  7.04658 4.61876 1.86379
Spine1  13.7524 10.254 1.78876
HEad  25.7827 36.7381 -0.0653793
LeftShoulder1  0 -2.42657e-020 -4.95415e-022
LeftArm  -19.1297 14.6371 -83.6261
LeftForeArm  47.0125 -24.6257 -4.60828
LeftHand  0.26245 -10.0794 -3.34766
RightShoulder  0 2.42657e-020 1.07489e-018
RightArm  -30.9555 0.0848842 75.6963
RightForeArm  42.4044 28.2164 5.41095
RightHand  -0.807569 22.5316 -3.68346
LeftUpLeg  -32.5722 -6.92495 -0.72015
LeftLeg  73.1706 1.80369 4.79071
LeftFoot  -10.6325 -0.0701445 -0.753808
LeftToes  -0.66425 9.37529e-007 1.1992e-007
133
root  21.4778 32.4774 -57.3178 176.059 -69.0685 -168.278
RightUpLeg  -3.33938 -9.25293 -1.1416
RightLeg  25.4222 1.71752 0.679988
RightFoot  -4.1882 -0.0153704 -0.042811
RightToes  -54.4889 -0.343291 -0.381543
Spine  6.54828 4.82015 0.570613
Spine1  12.5987 10.754 -0.355969
HEad  27.8776 31.0262 2.47953
LeftShoulder1  0 -2.42657e-020 -4.95415e-022
LeftArm  -16.1008 18.4864 -82.099
LeftForeArm  47.3424 -29.2967 -5.65025
LeftHand  0.285007 -11.1682 -3.28641
RightShoulder  0 2.42657e-020 1.07489e-018
RightArm  -29.7289 -0.659712 79.9216
RightForeArm  43.1686 29.5164 5.71076
RightHand  -1.00831 22.6893 -4.65389
LeftUpLeg  -31.7996 -5.32214 -3.97057
LeftLeg  58.343 2.97765 4.1802
LeftFoot  -9.88894 -0.0615488 -0.711446
LeftToes  -1.11641 9.37529e-007 1.1992e-007
134
root  19.6135 33.1982 -57.8266 179.902 -71.2683 -171.384
RightUpLeg  0.143927 -9.48203 -2.8773
RightLeg  22.2594 1.9112 0.639598
RightFoot  3.71395 0.0038729 0.258046
RightToes  -61.216 -0.406056 -0.401228
Spine  6.09437 4.41347 -0.198912
Spine1  11.6547 9.9013 -1.57307
HEad  28.6755 26.7592 3.25586
LeftShoulder1  0 -2.42657e-020 -4.95415e-022
LeftArm  -14.0548 21.2761 -81.4604
LeftForeArm  47.6221 -31.58 -6.19533
LeftHand  0.175846 -11.4886 -2.11916
RightShoulder  0 2.42657e-020 1.07489e-018
RightArm  -29.2735 -1.29726 82.9013
RightForeArm  43.3972 30.8474 6.02691
RightHand  -1.04435 22.3285 -4.91943
LeftUpLeg  -29.7455 -4.06656 -6.82523
LeftLeg  41.2685 5.11608 3.9211
LeftFoot  -9.28537 -0.0756395 -0.931418
LeftToes  -1.45458 9.37529e-007 1.1992e-007
135
root  17.7376 33.5814 -58.4177 179.004 -73.4195 -169.935
RightUpLeg  2.19685 -7.04042 -2.39745
RightLeg  22.613 1.32194 0.450521
RightFoot  10.3219 0.000551915 0.371413
RightToes  -63.689 -0.429647 -0.406594
Spine  5.72081 3.93247 -0.0222817
Spine1  11.0814 8.71005 -0.870477
HEad  29.3493 23.5263 2.86423
LeftShoulder1  0 -2.42657e-020 -4.95415e-022
LeftArm  -13.3173 22.2162 -82.8299
LeftForeArm  47.7743 -30.3153 -5.88962
LeftHand  0.154676 -11.6273 -1.89014
RightShoulder  0 2.42657e-020 1.07489e-018
RightArm  -29.6745 -2.13308 83.4279
RightForeArm  43.1513 31.4715 6.17877
RightHand  -1.06034 21.9896 -5.0851
LeftUpLeg  -26.9295 -1.20184 -8.62349
LeftLeg  26.1971 4.56176 1.88512
LeftFoot  -7.85881 -0.0422583 -0.615216
LeftToes  -2.42814 9.37529e-007 1.1992e-007
136
root  15.8908 33.5139 -59.0462 173.759 -75.3152 -164.495
RightUpLeg  1.37862 -2.35326 -0.241231
RightLeg  29.2973 0.632716 0.295218
RightFoot  13.5949 0.0110614 0.284736
RightToes  -59.3583 -0.388499 -0.396531
Spine  5.62459 3.3674 0.287318
Spine1  10.9398 7.52415 -0.245004
HEad  29.7223 22.1883 3.04658
LeftShoulder1  0 -2.42657e-020 -4.95415e-022
LeftArm  -13.6062 22.0112 -83.7657
LeftForeArm  48.6655 -30.1185 -5.84129
LeftHand  0.286626 -11.8983 -3.12176
RightShoulder  0 2.42657e-020 1.07489e-018
RightArm  -29.8262 -2.78305 83.1447
RightForeArm  43.3134 31.0916 6.08605
RightHand  -1.08004 21.7132 -5.25868
LeftUpLeg  -25.5762 3.1546 -9.98415
LeftLeg  19.5062 1.15204 0.324196
LeftFoot  -6.01681 -0.00380949 -0.0724949
LeftToes  -4.4898 9.37529e-007 1.1992e-007
137
root  14.0189 33.0309 -59.5181 172.365 -77.6291 -163.637
RightUpLeg  -1.38608 0.0470874 -0.578095
RightLeg  40.5648 3.51424 2.61006
RightFoot  15.8382 -0.132804 1.3322
RightToes  -54.5079 -0.343464 -0.381609
Spine  5.72029 2.48719 0.341213
Spine1  11.1105 5.7342 -0.186275
HEad  29.7226 21.3287 2.87613
LeftShoulder1  0 -2.42657e-020 -4.95415e-022
LeftArm  -12.8737 20.9904 -84.3032
LeftForeArm  48.5441 -29.5525 -5.70803
LeftHand  0.392938 -12.083 -4.08367
RightShoulder  0 2.42657e-020 1.07489e-018
RightArm  -30.1451 -3.16024 81.8767
RightForeArm  44.1479 29.8869 5.79655
RightHand  -1.09262 21.712 -5.32446
LeftUpLeg  -24.9538 2.48848 -11.585
LeftLeg  21.2557 1.77664 0.560064
LeftFoot  -7.17252 -0.0115712 -0.184634
LeftToes  10.2636 9.37529e-007 1.1992e-007
138
root  12.2198 32.1794 -59.9788 171.748 -79.7018 -164.143
RightUpLeg  -5.06608 1.24336 -1.96965
RightLeg  53.5988 6.89955 8.06943
RightFoot  17.2827 -0.451081 3.34491
RightToes  -48.4005 -0.288823 -0.357496
Spine  6.04829 1.64457 0.190381
Spine1  11.7035 4.05276 -0.57829
HEad  28.4806 20.8075 2.56635
LeftShoulder1  0 -2.42657e-020 -4.95415e-022
LeftArm  -10.436 19.5876 -83.607
LeftForeArm  48.1739 -30.8751 -6.0231
LeftHand  0.409176 -12.0681 -4.24183
RightShoulder  0 2.42657e-020 1.07489e-018
RightArm  -30.7953 -3.50614 80.3206
RightForeArm  45.338 28.4918 5.46976
RightHand  -1.10391 21.8876 -5.33597
LeftUpLeg  -25.1675 -2.53194 -11.7467
LeftLeg  29.7836 4.70317 2.29676
LeftFoot  -9.86105 -0.0738405 -0.855946
LeftToes  13.9522 9.37529e-007 1.1992e-007
139
root  10.4129 31.1938 -60.3898 173.861 -81.2243 -168.435
RightUpLeg  -8.57106 1.81037 -4.24979
RightLeg  65.4813 4.98905 9.09376
RightFoot  12.6087 -0.229424 2.45384
RightToes  -49.739 -0.300573 -0.363277
Spine  6.91927 0.917846 -0.194811
Spine1  13.3443 2.65038 -1.45132
HEad  26.0492 20.7434 1.75642
LeftShoulder1  0 -2.42657e-020 -4.95415e-022
LeftArm  -6.79233 16.6325 -82.1366
LeftForeArm  46.7463 -31.7994 -6.25065
LeftHand  0.295027 -11.4575 -3.31214
RightShoulder  0 2.42657e-020 1.07489e-018
RightArm  -30.717 -3.81949 78.5288
RightForeArm  45.8175 27.7121 5.29129
RightHand  -1.16025 21.9129 -5.61964
LeftUpLeg  -25.6819 -3.89405 -13.3196
LeftLeg  40.8543 5.03023 3.79839
LeftFoot  -16.3381 -0.251537 -1.75213
LeftToes  18.969 9.37529e-007 1.1992e-007
140
root  8.56945 30.503 -60.7434 178.168 -81.6714 -173.723
RightUpLeg  -14.104 2.05277 -6.45539
RightLeg  74.3139 1.36854 3.65566
RightFoot  8.55016 -0.0241525 0.700589
RightToes  -43.6061 -0.247912 -0.334573
Spine  7.34569 0.495613 -0.581247
Spine1  14.2127 1.66197 -1.95837
HEad  24.1574 19.9409 1.60655
LeftShoulder1  0 -2.42657e-020 -4.95415e-022
LeftArm  -5.37549 12.2652 -81.8128
LeftForeArm  46.8281 -28.8011 -5.53607
LeftHand  0.2553 -11.1643 -2.98346
RightShoulder  0 2.42657e-020 1.07489e-018
RightArm  -29.826 -5.70977 76.3012
RightForeArm  45.6185 27.8205 5.31614
RightHand  -1.37614 21.8733 -6.74476
LeftUpLeg  -23.442 -2.67795 -14.5905
LeftLeg  44.972 3.92933 3.43768
LeftFoot  -22.0409 -0.381763 -1.96009
LeftToes  18.9715 9.37529e-007 1.1992e-007
141
root  6.69394 30.2506 -61.0476 -179.069 -83.52 -176.805
RightUpLeg  -19.5845 0.655955 -7.62649
RightLeg  78.7563 -0.815828 -3.39103
RightFoot  3.91159 0.019319 -0.188151
RightToes  -34.6891 -0.177507 -0.283199
Spine  7.19016 -0.635047 -0.81425
Spine1  14.0341 -0.855955 -2.12269
HEad  24.1735 20.4734 1.72557
LeftShoulder1  0 -2.42657e-020 -4.95415e-022
LeftArm  -7.41197 9.30305 -82.1184
LeftForeArm  50.6303 -25.955 -4.88978
LeftHand  0.212528 -11.4207 -2.49658
RightShoulder  0 2.42657e-020 1.07489e-018
RightArm  -29.3367 -8.9406 74.7993
RightForeArm  47.4533 28.4469 5.45603
RightHand  -1.49578 22.1871 -7.24982
LeftUpLeg  -19.7428 -4.90014 -15.4472
LeftLeg  45.5579 4.40748 3.93478
LeftFoot  -25.2621 -0.566719 -2.52853
LeftToes  19.7573 9.37529e-007 1.1992e-007
142
root  4.74469 30.5232 -61.3396 -179.002 -85.1005 -176.772
RightUpLeg  -24.4962 -0.623151 -7.51536
RightLeg  77.7151 -1.81936 -6.63049
RightFoot  -1.11599 -0.00231727 0.139704
RightToes  -26.792 -0.122466 -0.229063
Spine  6.8718 -1.76158 -0.855101
Spine1  13.4969 -3.33574 -2.00834
HEad  25.1216 22.5126 1.31228
LeftShoulder1  0 -2.42657e-020 -4.95415e-022
LeftArm  -8.46342 8.26205 -82.0306
LeftForeArm  50.4087 -25.901 -4.87836
LeftHand  0.0998964 -11.3861 -1.37282
RightShoulder  0 2.42657e-020 1.07489e-018
RightArm  -29.6629 -13.5418 74.0721
RightForeArm  48.693 32.3864 6.39573
RightHand  -1.52028 22.6953 -7.19689
LeftUpLeg  -14.0345 -5.94998 -15.4082
LeftLeg  41.3764 4.18205 3.21978
LeftFoot  -25.7324 -0.52182 -2.2843
LeftToes  19.482 9.37529e-007 1.1992e-007
143
root  2.75379 31.2 -61.7543 156.255 -86.1329 -151.187
RightUpLeg  -28.2132 -1.44784 -4.64348
RightLeg  70.6645 -3.20019 -7.65613
RightFoot  -3.30343 0.00247617 0.463518
RightToes  -26.4313 -0.120135 -0.226414
Spine  6.26676 -2.72188 -0.150752
Spine1  12.3249 -5.42186 -0.63757
HEad  26.8004 25.4296 0.548102
LeftShoulder1  0 -2.42657e-020 -4.95415e-022
LeftArm  -6.80988 9.4273 -81.827
LeftForeArm  48.1313 -29.1514 -5.61508
LeftHand  0.00394389 -10.5758 -0.412829
RightShoulder  0 2.42657e-020 1.07489e-018
RightArm  -30.2972 -18.8532 73.0878
RightForeArm  47.3944 36.4521 7.46396
RightHand  -1.22744 22.9744 -5.66614
LeftUpLeg  -7.80806 -4.75512 -12.6694
LeftLeg  34.3178 2.06589 1.2187
LeftFoot  -23.3193 -0.193751 -0.938907
LeftToes  16.0012 9.37529e-007 1.1992e-007
144
root  0.729978 32.0664 -62.1321 122.508 -86.5642 -116.101
RightUpLeg  -30.232 -2.30308 -2.03678
RightLeg  58.8365 -5.57277 -8.01619
RightFoot  -4.32568 0.0126544 0.712732
RightToes  -25.4335 -0.113773 -0.219009
Spine  5.59255 -3.76252 0.581888
Spine1  10.9846 -7.64175 0.796636
HEad  28.1353 28.8128 -0.800183
LeftShoulder1  0 -2.42657e-020 -4.95415e-022
LeftArm  -4.05642 11.6224 -81.186
LeftForeArm  45.497 -34.3852 -6.90847
LeftHand  0.0454202 -10.4062 -0.869314
RightShoulder  0 2.42657e-020 1.07489e-018
RightArm  -30.7825 -23.6205 72.1956
RightForeArm  44.2188 40.4075 8.62387
RightHand  -0.786771 22.7555 -3.53928
LeftUpLeg  -2.40267 -3.17057 -9.76632
LeftLeg  27.2628 -0.973944 -0.428418
LeftFoot  -17.0844 0.0480717 0.320034
LeftToes  11.6193 9.37529e-007 1.1992e-007
